<svg xmlns="http://www.w3.org/2000/svg" width="142" height="61" viewBox="0 0 142 61" fill="none"><path d="M14.7175 42.1504V49.6152H13.4409V42.1504H14.7175ZM17.0605 42.1504V43.1758H11.1184V42.1504H17.0605ZM20.3622 48.5027V45.8572C20.3622 45.659 20.3264 45.4881 20.2546 45.3445C20.1828 45.201 20.0734 45.0899 19.9265 45.0113C19.7829 44.9326 19.6017 44.8933 19.383 44.8933C19.1813 44.8933 19.007 44.9275 18.8601 44.9959C18.7131 45.0642 18.5986 45.1565 18.5165 45.2727C18.4345 45.3889 18.3935 45.5205 18.3935 45.6675H17.163C17.163 45.4488 17.216 45.2368 17.322 45.0318C17.4279 44.8267 17.5817 44.6438 17.7834 44.4832C17.9851 44.3225 18.226 44.1961 18.5063 44.1038C18.7866 44.0115 19.101 43.9654 19.4496 43.9654C19.8666 43.9654 20.2358 44.0354 20.5571 44.1756C20.8818 44.3157 21.1364 44.5276 21.321 44.8113C21.509 45.0916 21.603 45.4436 21.603 45.8675V48.3335C21.603 48.5864 21.62 48.8137 21.6542 49.0154C21.6918 49.2136 21.7448 49.3862 21.8132 49.5332V49.6152H20.5468C20.4887 49.4819 20.4426 49.3127 20.4084 49.1077C20.3776 48.8992 20.3622 48.6975 20.3622 48.5027ZM20.5417 46.2417L20.5519 47.0056H19.665C19.436 47.0056 19.2343 47.0278 19.06 47.0723C18.8857 47.1133 18.7404 47.1748 18.6242 47.2569C18.508 47.3389 18.4208 47.438 18.3627 47.5542C18.3046 47.6704 18.2756 47.802 18.2756 47.949C18.2756 48.096 18.3098 48.231 18.3781 48.354C18.4465 48.4736 18.5456 48.5676 18.6755 48.636C18.8088 48.7044 18.9694 48.7385 19.1574 48.7385C19.4103 48.7385 19.6308 48.6873 19.8188 48.5847C20.0102 48.4788 20.1606 48.3506 20.27 48.2002C20.3793 48.0464 20.4374 47.9011 20.4443 47.7644L20.8442 48.313C20.8032 48.4531 20.7331 48.6035 20.634 48.7642C20.5348 48.9248 20.405 49.0786 20.2443 49.2256C20.0871 49.3691 19.8974 49.4871 19.6752 49.5793C19.4565 49.6716 19.2036 49.7178 18.9164 49.7178C18.5541 49.7178 18.2312 49.646 17.9475 49.5024C17.6638 49.3555 17.4416 49.1589 17.281 48.9128C17.1203 48.6633 17.04 48.3814 17.04 48.0669C17.04 47.773 17.0947 47.5132 17.2041 47.2876C17.3169 47.0586 17.4809 46.8672 17.6962 46.7134C17.915 46.5596 18.1816 46.4434 18.496 46.3648C18.8105 46.2827 19.1694 46.2417 19.5727 46.2417H20.5417ZM24.1203 45.2522V49.6152H22.8847V44.0679H24.0485L24.1203 45.2522ZM23.8998 46.6365L23.4999 46.6314C23.5033 46.2383 23.558 45.8777 23.664 45.5496C23.7733 45.2215 23.9237 44.9395 24.1151 44.7036C24.31 44.4678 24.5424 44.2867 24.8124 44.1602C25.0824 44.0303 25.3832 43.9654 25.7147 43.9654C25.9813 43.9654 26.2223 44.003 26.4376 44.0782C26.6564 44.1499 26.8427 44.2679 26.9965 44.4319C27.1537 44.596 27.2733 44.8096 27.3554 45.0728C27.4374 45.3325 27.4784 45.6521 27.4784 46.0315V49.6152H26.2377V46.0264C26.2377 45.7598 26.1984 45.5496 26.1198 45.3958C26.0446 45.2386 25.9335 45.1275 25.7865 45.0625C25.643 44.9942 25.4635 44.96 25.2482 44.96C25.0363 44.96 24.8466 45.0044 24.6791 45.0933C24.5116 45.1822 24.3698 45.3035 24.2536 45.4573C24.1408 45.6111 24.0536 45.7888 23.9921 45.9905C23.9306 46.1922 23.8998 46.4075 23.8998 46.6365ZM29.9855 41.7403V49.6152H28.7448V41.7403H29.9855ZM33.4308 44.0679L31.016 46.7442L29.6932 48.0977L29.3702 47.0518L30.37 45.8162L31.9388 44.0679H33.4308ZM32.2054 49.6152L30.4059 47.0108L31.1852 46.1443L33.6358 49.6152H32.2054ZM37.3272 48.113C37.3272 47.99 37.2965 47.8789 37.2349 47.7798C37.1734 47.6773 37.0555 47.585 36.8812 47.5029C36.7103 47.4209 36.4573 47.3457 36.1224 47.2774C35.8284 47.2124 35.5584 47.1355 35.3123 47.0466C35.0697 46.9544 34.8612 46.8433 34.6868 46.7134C34.5125 46.5835 34.3775 46.4297 34.2818 46.252C34.1861 46.0742 34.1383 45.8692 34.1383 45.6367C34.1383 45.4112 34.1878 45.1975 34.287 44.9959C34.3861 44.7942 34.5279 44.6165 34.7125 44.4627C34.8971 44.3089 35.1209 44.1875 35.3841 44.0987C35.6507 44.0098 35.9481 43.9654 36.2762 43.9654C36.741 43.9654 37.1392 44.044 37.4708 44.2012C37.8057 44.355 38.0621 44.5652 38.2398 44.8318C38.4175 45.095 38.5064 45.3924 38.5064 45.7239H37.2708C37.2708 45.5769 37.2332 45.4402 37.158 45.3138C37.0862 45.1839 36.9769 45.0796 36.8299 45.001C36.6829 44.919 36.4984 44.878 36.2762 44.878C36.0643 44.878 35.8883 44.9121 35.7481 44.9805C35.6114 45.0454 35.5089 45.1309 35.4405 45.2368C35.3756 45.3428 35.3431 45.459 35.3431 45.5855C35.3431 45.6778 35.3602 45.7615 35.3944 45.8367C35.432 45.9085 35.4935 45.9751 35.5789 46.0366C35.6644 46.0948 35.7806 46.1494 35.9276 46.2007C36.078 46.252 36.2659 46.3015 36.4915 46.3494C36.9154 46.4383 37.2794 46.5528 37.5836 46.6929C37.8912 46.8296 38.127 47.0073 38.2911 47.2261C38.4551 47.4414 38.5372 47.7149 38.5372 48.0464C38.5372 48.2925 38.4842 48.5181 38.3782 48.7232C38.2757 48.9248 38.1253 49.1008 37.9271 49.2512C37.7288 49.3982 37.4913 49.5127 37.2144 49.5947C36.941 49.6768 36.6334 49.7178 36.2916 49.7178C35.7891 49.7178 35.3636 49.6289 35.015 49.4512C34.6663 49.27 34.4015 49.0393 34.2203 48.759C34.0426 48.4753 33.9537 48.1814 33.9537 47.8772H35.1483C35.1619 48.1062 35.2252 48.2891 35.338 48.4258C35.4542 48.5591 35.5977 48.6565 35.7686 48.718C35.9429 48.7761 36.1224 48.8052 36.307 48.8052C36.5291 48.8052 36.7154 48.7761 36.8658 48.718C37.0162 48.6565 37.1307 48.5745 37.2093 48.4719C37.2879 48.366 37.3272 48.2463 37.3272 48.113ZM40.7776 48.4258L40.7725 49.3076C40.7725 49.6562 40.6853 50.0151 40.511 50.3843C40.3367 50.7534 40.106 51.0576 39.8189 51.2969L39.1575 50.9123C39.2532 50.7585 39.3404 50.603 39.419 50.4458C39.4976 50.2886 39.5608 50.1211 39.6087 49.9434C39.6565 49.7656 39.6805 49.5691 39.6805 49.3538V48.4258H40.7776ZM47.54 46.8313H45.5969V45.8111H47.54C47.8784 45.8111 48.1518 45.7564 48.3603 45.647C48.5688 45.5376 48.7209 45.3872 48.8166 45.1958C48.9158 45.001 48.9653 44.7788 48.9653 44.5293C48.9653 44.2935 48.9158 44.073 48.8166 43.868C48.7209 43.6595 48.5688 43.492 48.3603 43.3655C48.1518 43.2391 47.8784 43.1758 47.54 43.1758H45.9917V49.6152H44.7048V42.1504H47.54C48.1177 42.1504 48.6081 42.253 49.0115 42.4581C49.4182 42.6597 49.7275 42.94 49.9394 43.2989C50.1513 43.6543 50.2573 44.0611 50.2573 44.5191C50.2573 45.001 50.1513 45.4146 49.9394 45.7598C49.7275 46.105 49.4182 46.3699 49.0115 46.5545C48.6081 46.739 48.1177 46.8313 47.54 46.8313ZM52.6106 44.0679V49.6152H51.3698V44.0679H52.6106ZM51.2878 42.6119C51.2878 42.4239 51.3493 42.2684 51.4724 42.1453C51.5988 42.0189 51.7732 41.9556 51.9953 41.9556C52.2141 41.9556 52.3867 42.0189 52.5131 42.1453C52.6396 42.2684 52.7028 42.4239 52.7028 42.6119C52.7028 42.7964 52.6396 42.9502 52.5131 43.0733C52.3867 43.1963 52.2141 43.2579 51.9953 43.2579C51.7732 43.2579 51.5988 43.1963 51.4724 43.0733C51.3493 42.9502 51.2878 42.7964 51.2878 42.6119ZM55.2048 45.1343V51.748H53.9692V44.0679H55.1074L55.2048 45.1343ZM58.8193 46.7903V46.898C58.8193 47.3013 58.7714 47.6756 58.6757 48.0208C58.5834 48.3626 58.445 48.6616 58.2604 48.918C58.0793 49.1709 57.8554 49.3674 57.5888 49.5076C57.3222 49.6477 57.0146 49.7178 56.6659 49.7178C56.3207 49.7178 56.0182 49.6545 55.7585 49.5281C55.5021 49.3982 55.2851 49.2153 55.1074 48.9795C54.9296 48.7437 54.7861 48.4668 54.6767 48.1489C54.5707 47.8276 54.4956 47.4756 54.4511 47.0928V46.6775C54.4956 46.2708 54.5707 45.9016 54.6767 45.5701C54.7861 45.2386 54.9296 44.9532 55.1074 44.7139C55.2851 44.4746 55.5021 44.2901 55.7585 44.1602C56.0148 44.0303 56.3139 43.9654 56.6557 43.9654C57.0043 43.9654 57.3136 44.0337 57.5837 44.1704C57.8537 44.3037 58.081 44.4952 58.2655 44.7447C58.4501 44.9908 58.5885 45.2881 58.6808 45.6367C58.7731 45.982 58.8193 46.3665 58.8193 46.7903ZM57.5837 46.898V46.7903C57.5837 46.534 57.5597 46.2964 57.5119 46.0777C57.464 45.8555 57.3888 45.6607 57.2863 45.4932C57.1838 45.3257 57.0522 45.1958 56.8915 45.1035C56.7343 45.0078 56.5446 44.96 56.3224 44.96C56.1037 44.96 55.9157 44.9976 55.7585 45.0728C55.6013 45.1446 55.4697 45.2454 55.3637 45.3753C55.2578 45.5052 55.1757 45.6573 55.1176 45.8316C55.0595 46.0025 55.0185 46.1887 54.9946 46.3904V47.385C55.0356 47.6311 55.1057 47.8567 55.2048 48.0618C55.3039 48.2669 55.444 48.4309 55.6252 48.554C55.8098 48.6736 56.0456 48.7334 56.3327 48.7334C56.5549 48.7334 56.7446 48.6856 56.9018 48.5899C57.059 48.4941 57.1872 48.3626 57.2863 48.1951C57.3888 48.0242 57.464 47.8276 57.5119 47.6055C57.5597 47.3833 57.5837 47.1475 57.5837 46.898ZM62.3158 49.7178C61.9057 49.7178 61.5348 49.6511 61.2033 49.5178C60.8751 49.3811 60.5949 49.1914 60.3625 48.9487C60.1335 48.7061 59.9574 48.4207 59.8344 48.0925C59.7113 47.7644 59.6498 47.4107 59.6498 47.0313V46.8262C59.6498 46.3921 59.713 45.999 59.8395 45.647C59.966 45.295 60.142 44.9942 60.3676 44.7447C60.5932 44.4917 60.8598 44.2986 61.1674 44.1653C61.475 44.032 61.8082 43.9654 62.1671 43.9654C62.5636 43.9654 62.9105 44.032 63.2079 44.1653C63.5053 44.2986 63.7514 44.4866 63.9462 44.7293C64.1444 44.9685 64.2914 45.2539 64.3871 45.5855C64.4862 45.917 64.5358 46.2827 64.5358 46.6826V47.2107H60.2497V46.3238H63.3156V46.2263C63.3087 46.0042 63.2643 45.7957 63.1823 45.6009C63.1036 45.406 62.9823 45.2488 62.8183 45.1292C62.6542 45.0096 62.4354 44.9497 62.162 44.9497C61.9569 44.9497 61.7741 44.9942 61.6134 45.083C61.4562 45.1685 61.3246 45.2932 61.2187 45.4573C61.1127 45.6214 61.0307 45.8196 60.9726 46.052C60.9179 46.281 60.8905 46.5391 60.8905 46.8262V47.0313C60.8905 47.2739 60.923 47.4995 60.9879 47.708C61.0563 47.9131 61.1554 48.0925 61.2853 48.2463C61.4152 48.4002 61.5724 48.5215 61.757 48.6104C61.9415 48.6958 62.1518 48.7385 62.3876 48.7385C62.685 48.7385 62.9498 48.6787 63.1823 48.5591C63.4147 48.4395 63.6163 48.2703 63.7872 48.0515L64.4384 48.6821C64.3187 48.8565 64.1632 49.0239 63.9718 49.1846C63.7804 49.3418 63.5463 49.47 63.2694 49.5691C62.996 49.6682 62.6781 49.7178 62.3158 49.7178ZM68.6117 48.113C68.6117 47.99 68.5809 47.8789 68.5194 47.7798C68.4579 47.6773 68.3399 47.585 68.1656 47.5029C67.9947 47.4209 67.7418 47.3457 67.4068 47.2774C67.1129 47.2124 66.8429 47.1355 66.5968 47.0466C66.3541 46.9544 66.1456 46.8433 65.9713 46.7134C65.797 46.5835 65.662 46.4297 65.5663 46.252C65.4706 46.0742 65.4227 45.8692 65.4227 45.6367C65.4227 45.4112 65.4723 45.1975 65.5714 44.9959C65.6705 44.7942 65.8124 44.6165 65.9969 44.4627C66.1815 44.3089 66.4054 44.1875 66.6686 44.0987C66.9352 44.0098 67.2325 43.9654 67.5607 43.9654C68.0255 43.9654 68.4237 44.044 68.7552 44.2012C69.0902 44.355 69.3465 44.5652 69.5243 44.8318C69.702 45.095 69.7909 45.3924 69.7909 45.7239H68.5553C68.5553 45.5769 68.5177 45.4402 68.4425 45.3138C68.3707 45.1839 68.2613 45.0796 68.1144 45.001C67.9674 44.919 67.7828 44.878 67.5607 44.878C67.3487 44.878 67.1727 44.9121 67.0326 44.9805C66.8959 45.0454 66.7933 45.1309 66.725 45.2368C66.66 45.3428 66.6276 45.459 66.6276 45.5855C66.6276 45.6778 66.6446 45.7615 66.6788 45.8367C66.7164 45.9085 66.7779 45.9751 66.8634 46.0366C66.9488 46.0948 67.065 46.1494 67.212 46.2007C67.3624 46.252 67.5504 46.3015 67.776 46.3494C68.1998 46.4383 68.5638 46.5528 68.868 46.6929C69.1756 46.8296 69.4115 47.0073 69.5755 47.2261C69.7396 47.4414 69.8216 47.7149 69.8216 48.0464C69.8216 48.2925 69.7686 48.5181 69.6627 48.7232C69.5601 48.9248 69.4098 49.1008 69.2115 49.2512C69.0133 49.3982 68.7757 49.5127 68.4989 49.5947C68.2254 49.6768 67.9178 49.7178 67.576 49.7178C67.0736 49.7178 66.6481 49.6289 66.2994 49.4512C65.9508 49.27 65.6859 49.0393 65.5048 48.759C65.327 48.4753 65.2382 48.1814 65.2382 47.8772H66.4327C66.4464 48.1062 66.5096 48.2891 66.6224 48.4258C66.7386 48.5591 66.8822 48.6565 67.0531 48.718C67.2274 48.7761 67.4068 48.8052 67.5914 48.8052C67.8136 48.8052 67.9999 48.7761 68.1502 48.718C68.3006 48.6565 68.4151 48.5745 68.4937 48.4719C68.5724 48.366 68.6117 48.2463 68.6117 48.113ZM76.6455 48.5027V45.8572C76.6455 45.659 76.6097 45.4881 76.5379 45.3445C76.4661 45.201 76.3567 45.0899 76.2098 45.0113C76.0662 44.9326 75.8851 44.8933 75.6663 44.8933C75.4646 44.8933 75.2903 44.9275 75.1434 44.9959C74.9964 45.0642 74.8819 45.1565 74.7999 45.2727C74.7178 45.3889 74.6768 45.5205 74.6768 45.6675H73.4464C73.4464 45.4488 73.4993 45.2368 73.6053 45.0318C73.7112 44.8267 73.865 44.6438 74.0667 44.4832C74.2684 44.3225 74.5093 44.1961 74.7896 44.1038C75.0699 44.0115 75.3843 43.9654 75.733 43.9654C76.1499 43.9654 76.5191 44.0354 76.8404 44.1756C77.1651 44.3157 77.4197 44.5276 77.6043 44.8113C77.7923 45.0916 77.8863 45.4436 77.8863 45.8675V48.3335C77.8863 48.5864 77.9034 48.8137 77.9375 49.0154C77.9751 49.2136 78.0281 49.3862 78.0965 49.5332V49.6152H76.8301C76.772 49.4819 76.7259 49.3127 76.6917 49.1077C76.6609 48.8992 76.6455 48.6975 76.6455 48.5027ZM76.825 46.2417L76.8352 47.0056H75.9483C75.7193 47.0056 75.5176 47.0278 75.3433 47.0723C75.169 47.1133 75.0237 47.1748 74.9075 47.2569C74.7913 47.3389 74.7042 47.438 74.646 47.5542C74.5879 47.6704 74.5589 47.802 74.5589 47.949C74.5589 48.096 74.5931 48.231 74.6614 48.354C74.7298 48.4736 74.8289 48.5676 74.9588 48.636C75.0921 48.7044 75.2527 48.7385 75.4407 48.7385C75.6936 48.7385 75.9141 48.6873 76.1021 48.5847C76.2935 48.4788 76.4439 48.3506 76.5533 48.2002C76.6626 48.0464 76.7207 47.9011 76.7276 47.7644L77.1275 48.313C77.0865 48.4531 77.0164 48.6035 76.9173 48.7642C76.8182 48.9248 76.6883 49.0786 76.5276 49.2256C76.3704 49.3691 76.1807 49.4871 75.9585 49.5793C75.7398 49.6716 75.4869 49.7178 75.1998 49.7178C74.8375 49.7178 74.5145 49.646 74.2308 49.5024C73.9471 49.3555 73.7249 49.1589 73.5643 48.9128C73.4036 48.6633 73.3233 48.3814 73.3233 48.0669C73.3233 47.773 73.378 47.5132 73.4874 47.2876C73.6002 47.0586 73.7642 46.8672 73.9795 46.7134C74.1983 46.5596 74.4649 46.4434 74.7793 46.3648C75.0938 46.2827 75.4527 46.2417 75.856 46.2417H76.825ZM80.4036 45.2522V49.6152H79.168V44.0679H80.3318L80.4036 45.2522ZM80.1831 46.6365L79.7832 46.6314C79.7866 46.2383 79.8413 45.8777 79.9473 45.5496C80.0567 45.2215 80.2071 44.9395 80.3985 44.7036C80.5933 44.4678 80.8257 44.2867 81.0957 44.1602C81.3657 44.0303 81.6665 43.9654 81.9981 43.9654C82.2647 43.9654 82.5056 44.003 82.7209 44.0782C82.9397 44.1499 83.126 44.2679 83.2798 44.4319C83.437 44.596 83.5566 44.8096 83.6387 45.0728C83.7207 45.3325 83.7617 45.6521 83.7617 46.0315V49.6152H82.521V46.0264C82.521 45.7598 82.4817 45.5496 82.4031 45.3958C82.3279 45.2386 82.2168 45.1275 82.0698 45.0625C81.9263 44.9942 81.7468 44.96 81.5315 44.96C81.3196 44.96 81.1299 45.0044 80.9624 45.0933C80.7949 45.1822 80.6531 45.3035 80.5369 45.4573C80.4241 45.6111 80.3369 45.7888 80.2754 45.9905C80.2139 46.1922 80.1831 46.4075 80.1831 46.6365ZM88.4067 48.4668V41.7403H89.6474V49.6152H88.5246L88.4067 48.4668ZM84.7973 46.9031V46.7954C84.7973 46.375 84.8469 45.9922 84.946 45.647C85.0451 45.2984 85.1887 44.9993 85.3767 44.7498C85.5647 44.4969 85.7937 44.3037 86.0637 44.1704C86.3337 44.0337 86.6379 43.9654 86.9763 43.9654C87.3112 43.9654 87.6052 44.0303 87.8581 44.1602C88.111 44.2901 88.3264 44.4764 88.5041 44.719C88.6818 44.9583 88.8237 45.2454 88.9296 45.5803C89.0356 45.9119 89.1108 46.281 89.1552 46.6878V47.0313C89.1108 47.4277 89.0356 47.7901 88.9296 48.1182C88.8237 48.4463 88.6818 48.73 88.5041 48.9692C88.3264 49.2085 88.1093 49.3931 87.853 49.5229C87.6001 49.6528 87.3044 49.7178 86.966 49.7178C86.6311 49.7178 86.3286 49.6477 86.0586 49.5076C85.792 49.3674 85.5647 49.1709 85.3767 48.918C85.1887 48.665 85.0451 48.3677 84.946 48.0259C84.8469 47.6807 84.7973 47.3064 84.7973 46.9031ZM86.0329 46.7954V46.9031C86.0329 47.156 86.0551 47.3919 86.0996 47.6106C86.1474 47.8294 86.2209 48.0225 86.32 48.19C86.4192 48.354 86.5473 48.4839 86.7046 48.5796C86.8652 48.6719 87.0566 48.718 87.2788 48.718C87.559 48.718 87.7898 48.6565 87.9709 48.5335C88.1521 48.4104 88.2939 48.2446 88.3964 48.0361C88.5024 47.8242 88.5742 47.5884 88.6118 47.3286V46.4007C88.5913 46.199 88.5485 46.011 88.4836 45.8367C88.4221 45.6624 88.3383 45.5103 88.2324 45.3804C88.1264 45.2471 87.9948 45.1446 87.8376 45.0728C87.6838 44.9976 87.5009 44.96 87.289 44.96C87.0634 44.96 86.872 45.0078 86.7148 45.1035C86.5576 45.1992 86.4277 45.3308 86.3252 45.4983C86.226 45.6658 86.1526 45.8606 86.1047 46.0828C86.0569 46.305 86.0329 46.5425 86.0329 46.7954ZM94.964 42.1504V49.6152H93.6772V42.1504H94.964ZM98.0094 45.4163V46.4365H94.6359V45.4163H98.0094ZM98.435 42.1504V43.1758H94.6359V42.1504H98.435ZM100.66 44.0679V49.6152H99.4193V44.0679H100.66ZM99.3373 42.6119C99.3373 42.4239 99.3988 42.2684 99.5219 42.1453C99.6483 42.0189 99.8226 41.9556 100.045 41.9556C100.264 41.9556 100.436 42.0189 100.563 42.1453C100.689 42.2684 100.752 42.4239 100.752 42.6119C100.752 42.7964 100.689 42.9502 100.563 43.0733C100.436 43.1963 100.264 43.2579 100.045 43.2579C99.8226 43.2579 99.6483 43.1963 99.5219 43.0733C99.3988 42.9502 99.3373 42.7964 99.3373 42.6119ZM104.556 44.0679V44.9702H101.429V44.0679H104.556ZM102.331 42.7093H103.567V48.0823C103.567 48.2532 103.591 48.3848 103.639 48.4771C103.69 48.5659 103.76 48.6257 103.849 48.6565C103.938 48.6873 104.042 48.7026 104.162 48.7026C104.247 48.7026 104.329 48.6975 104.408 48.6873C104.486 48.677 104.55 48.6668 104.598 48.6565L104.603 49.5999C104.5 49.6306 104.38 49.658 104.244 49.6819C104.11 49.7058 103.957 49.7178 103.782 49.7178C103.499 49.7178 103.247 49.6682 103.029 49.5691C102.81 49.4666 102.639 49.3008 102.516 49.0718C102.393 48.8428 102.331 48.5386 102.331 48.1592V42.7093ZM108.053 44.0679V44.9702H104.926V44.0679H108.053ZM105.828 42.7093H107.064V48.0823C107.064 48.2532 107.087 48.3848 107.135 48.4771C107.187 48.5659 107.257 48.6257 107.346 48.6565C107.434 48.6873 107.539 48.7026 107.658 48.7026C107.744 48.7026 107.826 48.6975 107.904 48.6873C107.983 48.677 108.046 48.6668 108.094 48.6565L108.099 49.5999C107.997 49.6306 107.877 49.658 107.74 49.6819C107.607 49.7058 107.453 49.7178 107.279 49.7178C106.995 49.7178 106.744 49.6682 106.525 49.5691C106.306 49.4666 106.136 49.3008 106.013 49.0718C105.889 48.8428 105.828 48.5386 105.828 48.1592V42.7093ZM110.329 44.0679V49.6152H109.089V44.0679H110.329ZM109.007 42.6119C109.007 42.4239 109.068 42.2684 109.191 42.1453C109.318 42.0189 109.492 41.9556 109.714 41.9556C109.933 41.9556 110.106 42.0189 110.232 42.1453C110.358 42.2684 110.422 42.4239 110.422 42.6119C110.422 42.7964 110.358 42.9502 110.232 43.0733C110.106 43.1963 109.933 43.2579 109.714 43.2579C109.492 43.2579 109.318 43.1963 109.191 43.0733C109.068 42.9502 109.007 42.7964 109.007 42.6119ZM112.908 45.2522V49.6152H111.673V44.0679H112.836L112.908 45.2522ZM112.688 46.6365L112.288 46.6314C112.291 46.2383 112.346 45.8777 112.452 45.5496C112.561 45.2215 112.712 44.9395 112.903 44.7036C113.098 44.4678 113.33 44.2867 113.6 44.1602C113.87 44.0303 114.171 43.9654 114.503 43.9654C114.769 43.9654 115.01 44.003 115.226 44.0782C115.444 44.1499 115.631 44.2679 115.784 44.4319C115.942 44.596 116.061 44.8096 116.143 45.0728C116.225 45.3325 116.266 45.6521 116.266 46.0315V49.6152H115.026V46.0264C115.026 45.7598 114.986 45.5496 114.908 45.3958C114.833 45.2386 114.721 45.1275 114.574 45.0625C114.431 44.9942 114.251 44.96 114.036 44.96C113.824 44.96 113.635 45.0044 113.467 45.0933C113.3 45.1822 113.158 45.3035 113.042 45.4573C112.929 45.6111 112.842 45.7888 112.78 45.9905C112.719 46.1922 112.688 46.4075 112.688 46.6365ZM121.081 44.0679H122.203V49.4614C122.203 49.9604 122.097 50.3843 121.885 50.7329C121.674 51.0815 121.378 51.3464 120.999 51.5276C120.619 51.7121 120.18 51.8044 119.681 51.8044C119.469 51.8044 119.233 51.7737 118.973 51.7121C118.717 51.6506 118.468 51.5515 118.225 51.4148C117.986 51.2815 117.786 51.1055 117.625 50.8867L118.204 50.1587C118.403 50.3945 118.621 50.5671 118.861 50.6765C119.1 50.7859 119.351 50.8406 119.614 50.8406C119.898 50.8406 120.139 50.7876 120.337 50.6816C120.539 50.5791 120.694 50.427 120.804 50.2253C120.913 50.0237 120.968 49.7776 120.968 49.4871V45.324L121.081 44.0679ZM117.312 46.9031V46.7954C117.312 46.375 117.364 45.9922 117.466 45.647C117.569 45.2984 117.716 44.9993 117.907 44.7498C118.098 44.4969 118.331 44.3037 118.604 44.1704C118.878 44.0337 119.187 43.9654 119.532 43.9654C119.891 43.9654 120.197 44.0303 120.45 44.1602C120.706 44.2901 120.92 44.4764 121.091 44.719C121.262 44.9583 121.395 45.2454 121.491 45.5803C121.59 45.9119 121.663 46.281 121.711 46.6878V47.0313C121.667 47.4277 121.592 47.7901 121.486 48.1182C121.38 48.4463 121.239 48.73 121.065 48.9692C120.891 49.2085 120.676 49.3931 120.419 49.5229C120.166 49.6528 119.867 49.7178 119.522 49.7178C119.184 49.7178 118.878 49.6477 118.604 49.5076C118.334 49.3674 118.102 49.1709 117.907 48.918C117.716 48.665 117.569 48.3677 117.466 48.0259C117.364 47.6807 117.312 47.3064 117.312 46.9031ZM118.548 46.7954V46.9031C118.548 47.156 118.572 47.3919 118.62 47.6106C118.671 47.8294 118.748 48.0225 118.85 48.19C118.956 48.354 119.09 48.4839 119.25 48.5796C119.414 48.6719 119.607 48.718 119.83 48.718C120.12 48.718 120.358 48.6565 120.542 48.5335C120.73 48.4104 120.874 48.2446 120.973 48.0361C121.075 47.8242 121.147 47.5884 121.188 47.3286V46.4007C121.168 46.199 121.125 46.011 121.06 45.8367C120.999 45.6624 120.915 45.5103 120.809 45.3804C120.703 45.2471 120.57 45.1446 120.409 45.0728C120.248 44.9976 120.059 44.96 119.84 44.96C119.618 44.96 119.425 45.0078 119.26 45.1035C119.096 45.1992 118.961 45.3308 118.855 45.4983C118.753 45.6658 118.676 45.8606 118.625 46.0828C118.573 46.305 118.548 46.5425 118.548 46.7954ZM126.597 48.113C126.597 47.99 126.566 47.8789 126.505 47.7798C126.443 47.6773 126.325 47.585 126.151 47.5029C125.98 47.4209 125.727 47.3457 125.392 47.2774C125.098 47.2124 124.828 47.1355 124.582 47.0466C124.34 46.9544 124.131 46.8433 123.957 46.7134C123.782 46.5835 123.647 46.4297 123.552 46.252C123.456 46.0742 123.408 45.8692 123.408 45.6367C123.408 45.4112 123.458 45.1975 123.557 44.9959C123.656 44.7942 123.798 44.6165 123.982 44.4627C124.167 44.3089 124.391 44.1875 124.654 44.0987C124.921 44.0098 125.218 43.9654 125.546 43.9654C126.011 43.9654 126.409 44.044 126.741 44.2012C127.076 44.355 127.332 44.5652 127.51 44.8318C127.687 45.095 127.776 45.3924 127.776 45.7239H126.541C126.541 45.5769 126.503 45.4402 126.428 45.3138C126.356 45.1839 126.247 45.0796 126.1 45.001C125.953 44.919 125.768 44.878 125.546 44.878C125.334 44.878 125.158 44.9121 125.018 44.9805C124.881 45.0454 124.779 45.1309 124.71 45.2368C124.645 45.3428 124.613 45.459 124.613 45.5855C124.613 45.6778 124.63 45.7615 124.664 45.8367C124.702 45.9085 124.763 45.9751 124.849 46.0366C124.934 46.0948 125.05 46.1494 125.197 46.2007C125.348 46.252 125.536 46.3015 125.761 46.3494C126.185 46.4383 126.549 46.5528 126.853 46.6929C127.161 46.8296 127.397 47.0073 127.561 47.2261C127.725 47.4414 127.807 47.7149 127.807 48.0464C127.807 48.2925 127.754 48.5181 127.648 48.7232C127.546 48.9248 127.395 49.1008 127.197 49.2512C126.999 49.3982 126.761 49.5127 126.484 49.5947C126.211 49.6768 125.903 49.7178 125.561 49.7178C125.059 49.7178 124.634 49.6289 124.285 49.4512C123.936 49.27 123.671 49.0393 123.49 48.759C123.312 48.4753 123.224 48.1814 123.224 47.8772H124.418C124.432 48.1062 124.495 48.2891 124.608 48.4258C124.724 48.5591 124.868 48.6565 125.039 48.718C125.213 48.7761 125.392 48.8052 125.577 48.8052C125.799 48.8052 125.985 48.7761 126.136 48.718C126.286 48.6565 126.401 48.5745 126.479 48.4719C126.558 48.366 126.597 48.2463 126.597 48.113Z" fill="#00A9DC"></path><line x1="130.292" y1="44.7281" x2="141.044" y2="44.7281" stroke="#00A9DC" stroke-width="0.274293"></line><line x1="130.292" y1="45.5513" x2="139.618" y2="45.5513" stroke="#00A9DC" stroke-width="0.274293"></line><line x1="130.292" y1="46.3736" x2="138.439" y2="46.3736" stroke="#00A9DC" stroke-width="0.274293"></line><line x1="130.292" y1="47.1959" x2="137.204" y2="47.1959" stroke="#00A9DC" stroke-width="0.274293"></line><line y1="-0.137147" x2="10.7523" y2="-0.137147" transform="matrix(-1 0 0 1 10.9482 44.8662)" stroke="#00A9DC" stroke-width="0.274293"></line><line y1="-0.137147" x2="9.32597" y2="-0.137147" transform="matrix(-1 0 0 1 10.9482 45.6895)" stroke="#00A9DC" stroke-width="0.274293"></line><line y1="-0.137147" x2="8.14651" y2="-0.137147" transform="matrix(-1 0 0 1 10.9482 46.5117)" stroke="#00A9DC" stroke-width="0.274293"></line><line y1="-0.137147" x2="6.91219" y2="-0.137147" transform="matrix(-1 0 0 1 10.9482 47.334)" stroke="#00A9DC" stroke-width="0.274293"></line><path d="M59.7279 58.9894C59.7279 58.9144 59.7163 58.8475 59.6931 58.7885C59.6717 58.7278 59.6315 58.6733 59.5726 58.6251C59.5154 58.5751 59.4342 58.5269 59.3288 58.4805C59.2252 58.4323 59.0913 58.3823 58.927 58.3305C58.7448 58.2733 58.5752 58.209 58.4181 58.1376C58.2609 58.0662 58.1225 57.9831 58.0029 57.8885C57.885 57.7939 57.793 57.6849 57.727 57.5617C57.6609 57.4367 57.6279 57.2921 57.6279 57.1278C57.6279 56.967 57.6618 56.8206 57.7296 56.6885C57.7993 56.5563 57.8975 56.4429 58.0243 56.3483C58.1511 56.2518 58.3002 56.1777 58.4716 56.126C58.6448 56.0742 58.8359 56.0483 59.0449 56.0483C59.3342 56.0483 59.5842 56.101 59.7949 56.2063C60.0074 56.3117 60.1717 56.4545 60.2877 56.6349C60.4038 56.8153 60.4619 57.0179 60.4619 57.2429H59.7279C59.7279 57.1215 59.702 57.0144 59.6502 56.9215C59.6002 56.8287 59.5234 56.7554 59.4199 56.7019C59.3181 56.6483 59.1895 56.6215 59.0341 56.6215C58.8841 56.6215 58.7591 56.6438 58.6591 56.6885C58.5609 56.7331 58.4868 56.7938 58.4368 56.8706C58.3886 56.9474 58.3645 57.0331 58.3645 57.1278C58.3645 57.1992 58.3814 57.2635 58.4154 57.3206C58.4493 57.376 58.5002 57.4287 58.5681 57.4787C58.6359 57.5269 58.7198 57.5724 58.8199 57.6153C58.9216 57.6564 59.0395 57.6974 59.1734 57.7385C59.3877 57.8028 59.5752 57.8742 59.7359 57.9528C59.8985 58.0314 60.0333 58.1207 60.1404 58.2207C60.2494 58.3207 60.3306 58.4332 60.3842 58.5582C60.4395 58.6832 60.4672 58.8251 60.4672 58.9841C60.4672 59.1519 60.4342 59.3019 60.3681 59.4341C60.302 59.5662 60.2074 59.6787 60.0842 59.7716C59.961 59.8644 59.8127 59.935 59.6395 59.9832C59.4681 60.0314 59.2761 60.0555 59.0636 60.0555C58.8743 60.0555 58.6868 60.0305 58.5011 59.9805C58.3172 59.9287 58.1502 59.8519 58.0002 59.7502C57.8502 59.6466 57.7305 59.5162 57.6412 59.3591C57.552 59.2001 57.5073 59.0144 57.5073 58.8019H58.2466C58.2466 58.9251 58.2663 59.0305 58.3056 59.118C58.3466 59.2037 58.4038 59.2743 58.477 59.3296C58.552 59.3832 58.6395 59.4225 58.7395 59.4475C58.8395 59.4725 58.9475 59.485 59.0636 59.485C59.2136 59.485 59.3368 59.4644 59.4333 59.4234C59.5315 59.3805 59.6047 59.3216 59.6529 59.2466C59.7029 59.1716 59.7279 59.0859 59.7279 58.9894ZM61.7315 57.1037V60.002H61.0217V57.1037H61.7315ZM60.9735 56.3456C60.9735 56.2402 61.0092 56.1527 61.0806 56.0831C61.1538 56.0134 61.2521 55.9786 61.3753 55.9786C61.4985 55.9786 61.5958 56.0134 61.6673 56.0831C61.7405 56.1527 61.7771 56.2402 61.7771 56.3456C61.7771 56.4492 61.7405 56.5358 61.6673 56.6054C61.5958 56.6751 61.4985 56.7099 61.3753 56.7099C61.2521 56.7099 61.1538 56.6751 61.0806 56.6054C61.0092 56.5358 60.9735 56.4492 60.9735 56.3456ZM63.1003 57.7224V60.002H62.3932V57.1037H63.0575L63.1003 57.7224ZM62.9878 58.4483H62.7789C62.7807 58.2376 62.8092 58.0465 62.8646 57.8751C62.92 57.7037 62.9976 57.5563 63.0976 57.4331C63.1994 57.3099 63.32 57.2153 63.4593 57.1492C63.5986 57.0831 63.7539 57.0501 63.9254 57.0501C64.0646 57.0501 64.1905 57.0697 64.303 57.109C64.4155 57.1483 64.512 57.2108 64.5923 57.2965C64.6745 57.3822 64.737 57.4947 64.7798 57.634C64.8245 57.7715 64.8468 57.9412 64.8468 58.143V60.002H64.1343V58.1376C64.1343 58.0055 64.1146 57.901 64.0754 57.8242C64.0379 57.7474 63.9825 57.693 63.9093 57.6608C63.8378 57.6287 63.7495 57.6126 63.6441 57.6126C63.5352 57.6126 63.4396 57.6349 63.3575 57.6796C63.2771 57.7224 63.2093 57.7822 63.1539 57.859C63.1003 57.9358 63.0593 58.0242 63.0307 58.1242C63.0021 58.2242 62.9878 58.3323 62.9878 58.4483ZM66.6602 59.4984C66.7603 59.4984 66.8495 59.4787 66.9281 59.4394C67.0067 59.4002 67.0692 59.3448 67.1156 59.2734C67.1638 59.2019 67.1897 59.1189 67.1933 59.0242H67.8603C67.8567 59.2207 67.8014 59.3966 67.6942 59.5519C67.5871 59.7073 67.4442 59.8305 67.2656 59.9216C67.0888 60.0109 66.8906 60.0555 66.671 60.0555C66.4477 60.0555 66.2531 60.018 66.087 59.943C65.9209 59.868 65.7825 59.7636 65.6718 59.6296C65.5629 59.4957 65.4808 59.3403 65.4254 59.1635C65.3718 58.9867 65.345 58.7975 65.345 58.5957V58.5099C65.345 58.3082 65.3718 58.1189 65.4254 57.9421C65.4808 57.7653 65.5629 57.6099 65.6718 57.476C65.7825 57.3421 65.9209 57.2376 66.087 57.1626C66.2531 57.0876 66.4468 57.0501 66.6683 57.0501C66.9022 57.0501 67.1076 57.0956 67.2844 57.1867C67.4629 57.2778 67.6022 57.4063 67.7022 57.5724C67.804 57.7385 67.8567 57.934 67.8603 58.159H67.1933C67.1897 58.0555 67.1665 57.9626 67.1237 57.8805C67.0808 57.7983 67.0201 57.7322 66.9415 57.6822C66.8629 57.6322 66.7674 57.6072 66.6549 57.6072C66.5352 57.6072 66.4352 57.6322 66.3549 57.6822C66.2763 57.7322 66.2147 57.801 66.1701 57.8885C66.1272 57.9742 66.0968 58.0706 66.079 58.1778C66.0629 58.2832 66.0549 58.3939 66.0549 58.5099V58.5957C66.0549 58.7135 66.0629 58.826 66.079 58.9332C66.0968 59.0403 66.1272 59.1368 66.1701 59.2225C66.2147 59.3064 66.2763 59.3734 66.3549 59.4234C66.4352 59.4734 66.537 59.4984 66.6602 59.4984ZM69.6335 60.0555C69.4139 60.0555 69.2166 60.0198 69.0416 59.9484C68.8666 59.8769 68.7174 59.7778 68.5942 59.6511C68.4728 59.5225 68.379 59.3734 68.313 59.2037C68.2487 59.0323 68.2165 58.8483 68.2165 58.6519V58.5448C68.2165 58.3215 68.2487 58.1189 68.313 57.9367C68.3773 57.7528 68.4683 57.5947 68.5862 57.4626C68.7041 57.3305 68.8451 57.2287 69.0094 57.1572C69.1737 57.0858 69.355 57.0501 69.5532 57.0501C69.7585 57.0501 69.9398 57.0849 70.097 57.1546C70.2541 57.2224 70.3854 57.3188 70.4907 57.4438C70.5961 57.5688 70.6755 57.7189 70.7291 57.8939C70.7827 58.0671 70.8095 58.259 70.8095 58.4698V58.7671H68.538V58.2796H70.113V58.226C70.1095 58.1135 70.088 58.0108 70.0487 57.918C70.0094 57.8233 69.9487 57.7483 69.8666 57.693C69.7844 57.6358 69.6782 57.6072 69.5478 57.6072C69.4425 57.6072 69.3505 57.6305 69.2719 57.6769C69.1951 57.7215 69.1309 57.7858 69.0791 57.8698C69.0291 57.9519 68.9916 58.0501 68.9666 58.1644C68.9416 58.2787 68.9291 58.4055 68.9291 58.5448V58.6519C68.9291 58.7733 68.9451 58.8859 68.9773 58.9894C69.0112 59.093 69.0603 59.1832 69.1246 59.26C69.1907 59.335 69.2692 59.3939 69.3603 59.4368C69.4532 59.4778 69.5585 59.4984 69.6764 59.4984C69.8246 59.4984 69.9586 59.4698 70.0782 59.4127C70.1996 59.3537 70.305 59.2671 70.3943 59.1528L70.7505 59.5225C70.6898 59.6118 70.6077 59.6975 70.5041 59.7796C70.4023 59.8618 70.2791 59.9287 70.1345 59.9805C69.9898 60.0305 69.8228 60.0555 69.6335 60.0555ZM75.2533 59.4448V60.002H72.6122V59.5252L73.8792 58.1564C74.0113 58.0064 74.1158 57.876 74.1926 57.7653C74.2694 57.6546 74.3239 57.5546 74.356 57.4653C74.3899 57.3742 74.4069 57.2876 74.4069 57.2054C74.4069 57.0858 74.3855 56.9813 74.3426 56.892C74.2997 56.801 74.2372 56.7304 74.1551 56.6804C74.0747 56.6304 73.9756 56.6054 73.8578 56.6054C73.7274 56.6054 73.6158 56.6358 73.5229 56.6965C73.4319 56.7554 73.3622 56.8376 73.314 56.9429C73.2676 57.0483 73.2444 57.1688 73.2444 57.3046H72.5345C72.5345 57.0742 72.5881 56.8644 72.6952 56.6751C72.8024 56.484 72.956 56.3313 73.156 56.217C73.356 56.1027 73.5935 56.0456 73.8685 56.0456C74.1363 56.0456 74.3631 56.0902 74.5489 56.1795C74.7346 56.267 74.8757 56.392 74.9721 56.5545C75.0685 56.717 75.1167 56.9108 75.1167 57.1358C75.1167 57.2608 75.0962 57.384 75.0551 57.5055C75.0141 57.6269 74.956 57.7474 74.881 57.8671C74.8078 57.9849 74.7203 58.1046 74.6185 58.226C74.5167 58.3474 74.4033 58.4716 74.2783 58.5983L73.5176 59.4448H75.2533ZM78.3284 57.7171V58.3733C78.3284 58.6733 78.2981 58.9296 78.2374 59.1421C78.1766 59.3546 78.0891 59.5287 77.9748 59.6644C77.8606 59.7984 77.7239 59.8975 77.565 59.9618C77.4061 60.0243 77.2293 60.0555 77.0346 60.0555C76.8793 60.0555 76.7346 60.0359 76.6007 59.9966C76.4668 59.9555 76.3462 59.893 76.2391 59.8091C76.1337 59.7234 76.0427 59.6144 75.9659 59.4823C75.8909 59.3501 75.8328 59.1921 75.7918 59.0082C75.7525 58.8242 75.7328 58.6126 75.7328 58.3733V57.7171C75.7328 57.4171 75.7632 57.1617 75.8239 56.951C75.8864 56.7403 75.9748 56.5679 76.0891 56.434C76.2034 56.3001 76.34 56.2027 76.4989 56.142C76.6578 56.0795 76.8346 56.0483 77.0293 56.0483C77.1864 56.0483 77.3311 56.0679 77.4632 56.1072C77.5972 56.1465 77.7168 56.2081 77.8222 56.292C77.9293 56.3742 78.0204 56.4813 78.0954 56.6135C78.1704 56.7438 78.2275 56.901 78.2668 57.0849C78.3079 57.2671 78.3284 57.4778 78.3284 57.7171ZM77.6213 58.4698V57.618C77.6213 57.468 77.6123 57.3376 77.5945 57.2269C77.5784 57.1144 77.5543 57.0188 77.5222 56.9403C77.49 56.8617 77.4498 56.7983 77.4016 56.7501C77.3534 56.7001 77.298 56.6635 77.2355 56.6403C77.173 56.617 77.1043 56.6054 77.0293 56.6054C76.9364 56.6054 76.8534 56.6242 76.7802 56.6617C76.707 56.6974 76.6453 56.7545 76.5953 56.8331C76.5453 56.9117 76.5069 57.0162 76.4802 57.1465C76.4552 57.2751 76.4427 57.4322 76.4427 57.618V58.4698C76.4427 58.6198 76.4507 58.751 76.4668 58.8635C76.4846 58.976 76.5096 59.0725 76.5418 59.1528C76.5757 59.2332 76.6159 59.2993 76.6623 59.351C76.7105 59.401 76.7659 59.4385 76.8284 59.4635C76.8909 59.4868 76.9596 59.4984 77.0346 59.4984C77.1293 59.4984 77.2123 59.4796 77.2838 59.4421C77.357 59.4046 77.4186 59.3457 77.4686 59.2653C77.5186 59.1832 77.5561 59.0769 77.5811 58.9466C77.6079 58.8144 77.6213 58.6555 77.6213 58.4698ZM80.7017 56.0911V60.002H79.9919V56.9188L79.0517 57.2296V56.6563L80.6213 56.0911H80.7017ZM84.7224 58.5796V59.1368H81.9125L81.883 58.7082L83.5357 56.1018H84.1009L83.4902 57.1385L82.6035 58.5796H84.7224ZM84.259 56.1018V60.002H83.5491V56.1018H84.259Z" fill="#00052B"></path><path d="M3.72038 23.8308C3.76481 23.8394 3.80816 23.853 3.84965 23.8712C5.10848 24.5038 6.43919 24.9775 7.8119 25.2816C9.3134 25.6459 10.8389 25.8998 12.3765 26.0411C14.0853 26.2088 15.8031 26.2623 17.5188 26.2014C21.0774 26.1253 24.5894 25.3648 27.868 23.9604C28.1815 23.821 28.4758 23.651 28.7811 23.4963C28.8376 23.4745 28.8955 23.4568 28.9544 23.4434C28.9544 23.6204 28.8293 23.6761 28.7344 23.7319C28.4768 23.8911 28.21 24.0344 27.9353 24.1611C26.131 24.9534 24.244 25.5364 22.3103 25.899C21.1498 26.1317 19.9756 26.2877 18.7951 26.3659C17.611 26.43 16.4254 26.4369 15.2427 26.4453C14.0792 26.4289 12.9174 26.3517 11.7618 26.214C9.75306 26.0148 7.77076 25.6009 5.84797 24.9792C5.22882 24.7785 4.63011 24.5181 4.06007 24.2015C3.90442 24.1439 3.77063 24.0381 3.67773 23.8991L3.72038 23.8308Z" fill="#35BDE1"></path><path d="M3.72131 10.3849C3.7659 10.3929 3.80932 10.4064 3.85058 10.4253C5.10947 11.0575 6.44017 11.5307 7.81283 11.8343C9.3143 12.1991 10.8398 12.4534 12.3775 12.5953C14.0862 12.7625 15.8041 12.8155 17.5197 12.7542C21.0784 12.678 24.5903 11.9175 27.8689 10.5131C28.1825 10.3738 28.4768 10.2037 28.7821 10.0491C28.8387 10.0278 28.8966 10.0102 28.9554 9.99609C28.9554 10.1745 28.8302 10.2302 28.7353 10.286C28.4777 10.4447 28.2109 10.5876 27.9363 10.7138C26.132 11.5066 24.245 12.09 22.3113 12.4531C21.1507 12.6854 19.9765 12.8409 18.796 12.9186C17.6119 12.9827 16.4264 12.9897 15.2436 12.998C14.0824 12.9814 12.9229 12.9042 11.7696 12.7667C9.76102 12.5673 7.77879 12.1539 5.85578 11.5333C5.2366 11.3322 4.63789 11.0713 4.06789 10.7543C3.91261 10.6967 3.77893 10.5915 3.68555 10.4532L3.72131 10.3849Z" fill="#35BDE1"></path><path d="M3.72038 17.4616C3.76481 17.4702 3.80816 17.4838 3.84965 17.5021C5.10854 18.1342 6.43924 18.6074 7.8119 18.9111C9.31337 19.2758 10.8389 19.5301 12.3765 19.672C14.0853 19.8392 15.8031 19.8922 17.5188 19.8309C21.0774 19.7552 24.5893 18.9952 27.868 17.5913C28.1815 17.4519 28.4758 17.2819 28.7811 17.1272C28.8374 17.1047 28.8953 17.087 28.9544 17.0742C28.9544 17.2512 28.8293 17.307 28.7344 17.3627C28.4768 17.5215 28.2099 17.6643 27.9353 17.7906C26.1313 18.5839 24.2442 19.1674 22.3103 19.5298C21.1498 19.7626 19.9756 19.9186 18.7951 19.9967C17.611 20.0594 16.4254 20.0678 15.2427 20.0748C14.0792 20.0588 12.9174 19.9821 11.7618 19.8448C9.75326 19.6443 7.77111 19.2304 5.84797 18.61C5.22878 18.4089 4.63008 18.148 4.06007 17.831C3.90479 17.7734 3.77112 17.6682 3.67773 17.5299L3.72038 17.4616Z" fill="#35BDE1"></path><path fill-rule="evenodd" clip-rule="evenodd" d="M9.49723 7.26357C9.49697 7.39036 9.44758 7.51197 9.3597 7.60222C9.27063 7.69127 9.15063 7.74132 9.02551 7.74158H8.31445V2.94043H9.02551C9.15051 2.94128 9.27031 2.99124 9.3597 3.0798C9.44779 3.17048 9.49718 3.2926 9.49723 3.41984H23.2007C25.212 3.41984 27.1409 4.22947 28.563 5.67062C29.9852 7.11177 30.7842 9.06639 30.7842 11.1045H26.9925C26.9925 10.0854 26.593 9.10814 25.8819 8.38756C25.1708 7.66699 24.2064 7.26217 23.2007 7.26217L9.49723 7.26357Z" fill="#00052B"></path><path fill-rule="evenodd" clip-rule="evenodd" d="M23.2017 29.9791C23.2021 29.8523 23.2514 29.7308 23.3392 29.6404C23.4281 29.5511 23.5482 29.501 23.6734 29.5011H24.3845V34.3036H23.6734C23.5482 34.3037 23.4281 34.2536 23.3392 34.1643C23.2514 34.0739 23.2021 33.9524 23.2017 33.8256H9.49955C7.77616 33.8252 6.10424 33.2304 4.75891 32.1389C3.41359 31.0474 2.47501 29.5243 2.09766 27.8203H6.08604C6.39666 28.469 6.88145 29.0157 7.48474 29.3979C8.08793 29.7804 8.78527 29.9828 9.49679 29.9819L23.2017 29.9791Z" fill="#00052B"></path><path fill-rule="evenodd" clip-rule="evenodd" d="M7.8411 3.60742V7.64904C7.201 7.96381 6.66144 8.45504 6.28428 9.06638C5.90702 9.67768 5.70729 10.3843 5.708 11.1053V26.2028C5.77001 26.2027 5.83146 26.2149 5.88881 26.2388C5.94616 26.2627 5.99829 26.2979 6.04222 26.3422C6.13036 26.4323 6.17979 26.554 6.17975 26.6809V27.4014H1.44043V26.6795C1.44069 26.5527 1.49008 26.4311 1.57796 26.3408C1.62189 26.2965 1.67403 26.2613 1.73137 26.2374C1.78872 26.2135 1.85017 26.2013 1.91218 26.2014V11.1081C1.91242 9.36126 2.49976 7.66658 3.57745 6.3032C4.65515 4.93981 6.1589 3.98903 7.8411 3.60742Z" fill="#00A9DC"></path><path d="M18.2576 0.806641H14.7217V1.77104H18.259L18.2576 0.806641Z" fill="#00052B"></path><path d="M18.2576 0.598633H14.7217V0.807682H18.259L18.2576 0.598633Z" fill="#00A9DC"></path><path d="M18.3351 0H14.6396V0.597886H18.3379L18.3351 0Z" fill="#00052B"></path><mask id="mask0_668_996" style="mask-type:luminance" maskUnits="userSpaceOnUse" x="31" y="20" width="8" height="9"><path d="M38.9283 20.7012H31.3848V28.9823H38.9283V20.7012Z" fill="white"></path></mask><g mask="url(#mask0_668_996)"><path d="M35.9076 27.343C35.1581 27.6022 34.1514 27.5451 33.4692 27.1159C33.2244 26.9598 32.9906 26.7228 32.9631 26.419C32.9522 26.2919 32.9826 26.1646 33.0498 26.0567C33.0713 26.023 33.0957 25.9913 33.1227 25.9619C33.1062 25.9977 33.092 26.0344 33.08 26.072C33.0452 26.1783 33.0418 26.2927 33.0704 26.4009C33.1501 26.6796 33.4197 26.8664 33.6714 26.9918C34.0858 27.1778 34.5287 27.29 34.9807 27.3235C35.2888 27.3521 35.5985 27.3591 35.9076 27.3444V27.343Z" fill="#00A9DC"></path><path d="M37.0734 25.8262C37.1547 25.8661 37.2256 25.9246 37.2805 25.9972C37.3354 26.0698 37.3728 26.1544 37.3897 26.2443C37.4571 26.5857 37.211 26.8951 36.9111 27.0192C36.8488 27.0466 36.7831 27.0653 36.7158 27.0749C36.7378 27.0484 36.7598 27.0247 36.7832 26.9996C36.9344 26.8569 37.0592 26.6879 37.1518 26.5007C37.2072 26.3589 37.2106 26.2017 37.1614 26.0575C37.1373 25.9807 37.1079 25.9057 37.0734 25.8331V25.8262Z" fill="#00A9DC"></path><path d="M33.5994 27.9794C33.0245 27.9111 32.3011 27.5961 32.0549 27.0289C32.05 27.0195 32.0458 27.0097 32.0425 26.9997C32.0425 26.9899 32.0288 26.9634 32.0261 26.9537C32.0233 26.9439 32.0123 26.9091 32.0082 26.8923C32.004 26.8756 31.9999 26.8547 31.9972 26.845C31.9944 26.8352 31.9903 26.8018 31.9876 26.7795C31.9848 26.7572 31.9876 26.7335 31.9876 26.7153C31.9862 26.6935 31.9862 26.6717 31.9876 26.6498V26.6164C32.0151 26.2053 32.3355 25.8861 32.6752 25.7091C32.7767 25.6551 32.8831 25.6113 32.9929 25.5781C32.931 25.6241 32.8719 25.6687 32.8127 25.7175C32.4538 25.9962 32.0714 26.4143 32.2626 26.9132C32.3933 27.2394 32.7164 27.4847 33.0066 27.6658C33.1978 27.7829 33.3986 27.8818 33.598 27.9808L33.5994 27.9794Z" fill="#00A9DC"></path><path d="M37.1725 25.5137C37.6841 25.6781 38.2727 26.0461 38.3029 26.6426C38.325 27.3241 37.6346 27.7575 37.0789 27.9735C36.45 28.2004 35.7799 28.286 35.115 28.2244C34.9954 28.2146 34.8771 28.1993 34.7588 28.1784C34.9665 28.1686 35.1714 28.1561 35.3804 28.1338C36.0983 28.0529 36.8273 27.8996 37.4544 27.5261C37.6967 27.3927 37.8969 27.1927 38.032 26.9491C38.1847 26.6314 38.0815 26.3108 37.8629 26.0544C37.6651 25.8365 37.4326 25.6537 37.1752 25.5137H37.1725Z" fill="#00A9DC"></path><path d="M38.5928 26.2039C38.7986 26.41 38.9183 26.6884 38.927 26.9815C38.919 27.1601 38.8756 27.3353 38.7993 27.4964C38.7229 27.6576 38.6153 27.8015 38.4828 27.9195C37.9423 28.4407 37.1927 28.7083 36.4721 28.8574C35.083 29.1361 33.1714 28.9828 32.0216 28.0909C31.733 27.8819 31.52 27.5828 31.4151 27.2394C31.3615 27.0217 31.3793 26.7922 31.466 26.5858C31.5398 26.4138 31.6485 26.2594 31.7851 26.1328C31.5998 26.342 31.4907 26.609 31.4756 26.8896C31.4687 27.5028 32.0189 27.9264 32.5126 28.1773C34.0254 28.9327 36.545 28.9243 38.0138 28.0658C38.2376 27.9373 38.4366 27.7688 38.6011 27.5683C38.9421 27.1321 38.916 26.6443 38.6011 26.2039H38.5928Z" fill="#00A9DC"></path><path d="M36.3356 26.4102L36.326 26.42C35.9984 26.7041 35.5814 26.8602 35.1502 26.8602C34.7189 26.8602 34.3019 26.7041 33.9743 26.42L33.9646 26.4102C33.7172 26.19 33.5229 25.9151 33.3968 25.6068C33.2706 25.2985 33.216 24.965 33.2371 24.6319C33.2976 23.8194 33.8106 23.1128 34.2837 22.4383C34.6592 21.9045 32.8286 19.8823 32.9469 19.2607C33.0652 19.8823 35.6398 21.9087 36.0152 22.4383C36.4897 23.1128 37.0013 23.8194 37.0618 24.6319C37.0827 24.9648 37.0282 25.2982 36.9023 25.6064C36.7764 25.9147 36.5826 26.1896 36.3356 26.4102Z" fill="#00A9DC"></path><path d="M34.9588 26.2438C34.9724 26.2156 34.9795 26.1846 34.9794 26.1532C34.9806 26.1215 34.9744 26.0901 34.9615 26.0612C34.9491 26.0317 34.9309 26.0052 34.9079 25.9832C34.8851 25.9616 34.8579 25.9454 34.8281 25.9358C34.5829 25.8574 34.3576 25.7256 34.168 25.5497C33.9737 25.3726 33.8459 25.1328 33.8063 24.871C33.8036 24.8466 33.7918 24.8242 33.7733 24.8083C33.7552 24.7918 33.7316 24.7828 33.7073 24.7832C33.6935 24.7832 33.68 24.786 33.6674 24.7916C33.6543 24.7973 33.6425 24.8059 33.633 24.8167C33.624 24.8269 33.6171 24.8387 33.6124 24.8515C33.6097 24.8653 33.6097 24.8795 33.6124 24.8933C33.64 25.2126 33.7542 25.5179 33.9424 25.7755C34.1302 26.0333 34.3843 26.2338 34.6769 26.3553C34.73 26.3761 34.7888 26.3761 34.8419 26.3553C34.8949 26.3345 34.9381 26.2942 34.9629 26.2424L34.9588 26.2438Z" fill="white"></path><path d="M33.7137 24.5114C33.7422 24.5114 33.7695 24.4999 33.7896 24.4795C33.8097 24.4591 33.821 24.4315 33.821 24.4027C33.821 24.3738 33.8097 24.3462 33.7896 24.3258C33.7695 24.3054 33.7422 24.2939 33.7137 24.2939C33.6853 24.2939 33.658 24.3054 33.6379 24.3258C33.6178 24.3462 33.6064 24.3738 33.6064 24.4027C33.6064 24.4315 33.6178 24.4591 33.6379 24.4795C33.658 24.4999 33.6853 24.5114 33.7137 24.5114Z" fill="white"></path></g><path d="M9.50977 3.40719C9.50977 2.11387 12.6331 1.06445 16.4881 1.06445C20.343 1.06445 23.4663 2.11666 23.4663 3.40719H9.50977Z" fill="#00A9DC"></path><path fill-rule="evenodd" clip-rule="evenodd" d="M24.4395 17.0877V21.6311C24.4384 21.7816 24.3792 21.9257 24.2745 22.0325C24.2229 22.0858 24.1612 22.1281 24.0932 22.1568C24.0252 22.1856 23.9521 22.2001 23.8784 22.1997H23.0381V16.5303H23.8784C23.9521 16.5298 24.0252 16.5444 24.0932 16.5732C24.1612 16.6019 24.2229 16.6442 24.2745 16.6975C24.3768 16.8014 24.4359 16.9411 24.4395 17.0877Z" fill="#00052B"></path><path fill-rule="evenodd" clip-rule="evenodd" d="M34.152 16.5303V22.2094H33.3103C33.1618 22.2091 33.0195 22.1496 32.9142 22.0436C32.8095 21.9368 32.7503 21.7927 32.7492 21.6422H32.6006V17.0989H24.9814V17.0905H32.4617C32.558 17.0905 32.6556 17.1003 32.7533 17.1003C32.7544 16.9498 32.8136 16.8057 32.9183 16.6989C33.0233 16.5923 33.1657 16.5322 33.3144 16.5317L34.152 16.5303Z" fill="#00052B"></path><path fill-rule="evenodd" clip-rule="evenodd" d="M32.6091 17.0859V21.639H24.6736C24.5953 21.639 24.5182 21.6293 24.4385 21.6293V17.0859H32.6091Z" fill="#00052B"></path><path fill-rule="evenodd" clip-rule="evenodd" d="M24.7314 21.6445H24.4385V21.6348C24.5375 21.6348 24.6351 21.6375 24.7314 21.6445Z" fill="#00052B"></path><path fill-rule="evenodd" clip-rule="evenodd" d="M27.0696 26.3896H30.8613V26.5137C30.8613 28.26 30.2746 29.9542 29.1977 31.3175C28.1208 32.6808 26.618 33.6319 24.9365 34.0144V29.9727C25.5762 29.6566 26.1155 29.1651 26.4934 28.554C26.8702 27.9425 27.0698 27.236 27.0696 26.5151V26.3896Z" fill="#00A9DC"></path><path fill-rule="evenodd" clip-rule="evenodd" d="M31.3313 22.1729V22.8934C31.331 23.0202 31.2816 23.1418 31.1937 23.232C31.1047 23.3211 30.9847 23.3711 30.8595 23.3714V25.0926H27.0664V23.3728C26.9413 23.3725 26.8213 23.3225 26.7323 23.2334C26.6445 23.1431 26.5951 23.0215 26.5947 22.8948V22.1742L31.3313 22.1729Z" fill="#00A9DC"></path><path d="M30.8589 25.0537H27.0645V26.6745H30.8589V25.0537Z" fill="#00A9DC"></path><path fill-rule="evenodd" clip-rule="evenodd" d="M44.8823 32.5279L44.8695 33.465L38.709 33.3784L38.7217 32.4412C38.7248 32.2764 38.7916 32.1195 38.9078 32.0042C39.0254 31.8893 39.1826 31.8254 39.346 31.8262V31.8074L44.2753 31.7969V31.8965C44.3561 31.8974 44.4357 31.9147 44.5098 31.9473C44.5838 31.9799 44.6507 32.0271 44.7065 32.0862C44.7632 32.1444 44.8079 32.2134 44.8381 32.2892C44.8683 32.365 44.8833 32.4461 44.8823 32.5279Z" fill="#00052B"></path><path fill-rule="evenodd" clip-rule="evenodd" d="M64.9155 32.5279L64.9027 33.465L58.7422 33.3784L58.7549 32.4412C58.758 32.2764 58.8248 32.1195 58.941 32.0042C59.0586 31.8893 59.2158 31.8254 59.3792 31.8262V31.8074L64.3085 31.7969V31.8965C64.3893 31.8974 64.4689 31.9147 64.543 31.9473C64.617 31.9799 64.6839 32.0271 64.7397 32.0862C64.7964 32.1444 64.8411 32.2134 64.8713 32.2892C64.9015 32.365 64.9165 32.4461 64.9155 32.5279Z" fill="#00052B"></path><path d="M58.9392 21.498H44.002V25.3018H58.9392V21.498Z" fill="#00052B"></path><path d="M52.4705 7.69989L44.2661 31.8193H39.3066L49.6416 3.99219H52.8103L52.4705 7.69989Z" fill="#00A9DC"></path><path d="M59.3362 31.8193L51.1133 7.69989L50.7549 3.99219H53.9421L64.3152 31.8193H59.3362Z" fill="#00A9DC"></path><path d="M125.553 33.5821H119.258L119.299 29.5007H125.553C127.374 29.5007 128.898 29.0973 130.126 28.2905C131.368 27.4846 132.299 26.3291 132.919 24.8242C133.554 23.3208 133.871 21.53 133.87 19.4518V17.8328C133.87 16.2185 133.688 14.7897 133.324 13.5464C132.973 12.3023 132.447 11.2562 131.746 10.408C131.063 9.56491 130.187 8.90308 129.195 8.4798C128.194 8.04245 127.04 7.82378 125.734 7.82378H119.137V3.72363H125.734C127.691 3.72363 129.479 4.05867 131.097 4.72875C132.681 5.36056 134.111 6.33298 135.288 7.57893C136.497 8.85933 137.428 10.3827 138.019 12.0504C138.654 13.7866 138.971 15.7281 138.97 17.875V19.4541C138.97 21.6003 138.653 23.5418 138.019 25.2787C137.427 26.946 136.497 28.4689 135.288 29.749C134.084 30.9909 132.636 31.9624 131.037 32.6004C129.405 33.2549 127.577 33.5821 125.553 33.5821Z" fill="#00A9DC"></path><path d="M122.071 3.72168H116.991V33.5825H122.071V3.72168Z" fill="#00A9DC"></path><path d="M122.071 7.68945H116.991V29.3828H122.071V7.68945Z" fill="#00052B"></path><path fill-rule="evenodd" clip-rule="evenodd" d="M90.7627 4.68348V3.78613L96.6585 3.79317V4.68935C96.6577 4.84722 96.5954 4.99837 96.4851 5.1099C96.3739 5.22157 96.2243 5.28502 96.0678 5.28679V5.3032L91.3523 5.37465V5.27976C91.2751 5.2796 91.1987 5.26401 91.1275 5.23385C91.0563 5.2037 90.9916 5.15958 90.9373 5.10404C90.8822 5.0491 90.8384 4.98364 90.8084 4.91146C90.7785 4.83927 90.7629 4.76179 90.7627 4.68348Z" fill="#00052B"></path><path fill-rule="evenodd" clip-rule="evenodd" d="M106.525 4.68348V3.78613L112.421 3.79317V4.68935C112.42 4.84722 112.358 4.99837 112.248 5.1099C112.137 5.22161 111.988 5.28509 111.832 5.28679V5.3032L107.115 5.37465V5.27976C107.038 5.27963 106.961 5.26405 106.89 5.2339C106.818 5.20375 106.753 5.15961 106.699 5.10404C106.644 5.04904 106.6 4.98356 106.571 4.91137C106.541 4.83918 106.525 4.76172 106.525 4.68348Z" fill="#00052B"></path><path d="M107.127 5.25488H111.841V23.8508C111.841 25.9649 111.389 27.7358 110.484 29.1634C109.587 30.5818 108.302 31.7042 106.785 32.3932C105.238 33.107 103.509 33.4639 101.598 33.4639C99.624 33.4639 97.8641 33.107 96.3181 32.3932C94.8123 31.7036 93.5399 30.5804 92.6593 29.1634C91.7784 27.7366 91.3379 25.9657 91.3379 23.8508V5.25488H96.0603V23.8508C96.0603 25.1886 96.2865 26.2906 96.7389 27.1567C97.162 27.9815 97.8373 28.6453 98.6637 29.0486C99.493 29.4563 100.473 29.6601 101.605 29.6601C102.736 29.6601 103.711 29.4563 104.528 29.0486C105.354 28.6449 106.029 27.9812 106.452 27.1567C106.905 26.2914 107.132 25.1894 107.132 23.8508L107.127 5.25488Z" fill="#00A9DC"></path><path d="M111.84 5.20801H107.106V23.8157H111.84V5.20801Z" fill="#00052B"></path><path d="M96.0768 5.20801H91.3428V23.8157H96.0768V5.20801Z" fill="#00052B"></path><path fill-rule="evenodd" clip-rule="evenodd" d="M72.7012 32.564L72.6885 33.4649L66.7695 33.3817L66.7823 32.482C66.7847 32.3233 66.8492 32.1721 66.9615 32.0614C67.0742 31.9506 67.2252 31.8889 67.3822 31.8892V31.8728L72.122 31.8623V31.9572C72.1997 31.9584 72.2763 31.9752 72.3475 32.0065C72.4188 32.0379 72.4832 32.0832 72.537 32.1399C72.591 32.1959 72.6333 32.2623 72.6615 32.3351C72.6897 32.408 72.7032 32.4858 72.7012 32.564Z" fill="#00052B"></path><path fill-rule="evenodd" clip-rule="evenodd" d="M88.6737 32.4765L88.6645 33.4324L82.3779 33.3692L82.3872 32.4132C82.389 32.2447 82.4568 32.0837 82.5756 31.9657C82.695 31.8478 82.8551 31.7818 83.0219 31.7818V31.7736L88.0518 31.7432V31.8451C88.2181 31.8469 88.377 31.9156 88.4934 32.036C88.6078 32.1535 88.6725 32.3115 88.6737 32.4765Z" fill="#00052B"></path><path d="M67.3916 4.04883H77.1023C79.1894 4.04883 80.9685 4.36747 82.4398 5.00475C83.911 5.64203 85.0363 6.58507 85.8154 7.83386C86.6069 9.07015 87.003 10.5989 87.0038 12.4202C87.0038 13.8095 86.7522 15.0329 86.2489 16.0904C85.7541 17.1383 85.0245 18.0545 84.1183 18.766C83.1315 19.5149 82.0198 20.078 80.8364 20.4283L79.4028 21.1312H70.6713L70.6331 17.3275H77.1775C78.3088 17.3275 79.2518 17.1236 80.0063 16.7159C80.7233 16.3458 81.3147 15.7669 81.7045 15.0536C82.1001 14.3149 82.3011 13.4854 82.2883 12.6451C82.2883 11.6767 82.0999 10.836 81.723 10.1229C81.3549 9.39314 80.758 8.80798 80.026 8.45942C79.2553 8.06502 78.2807 7.86744 77.1023 7.86666H72.1233V31.8713H67.3916V4.04883Z" fill="#00A9DC"></path><path d="M83.0628 31.8758L76.6133 19.3762L81.5739 19.3574L88.117 31.6274V31.8758H83.0628Z" fill="#00A9DC"></path><path d="M72.1238 4.04883H67.3701V31.9931H72.1238V4.04883Z" fill="#00052B"></path></svg>