<svg xmlns="http://www.w3.org/2000/svg" viewBox="1 -1 40 34" fill="none">
  <path d="M3.72038 23.8308C3.76481 23.8394 3.80816 23.853 3.84965 23.8712C5.10848 24.5038 6.43919 24.9775 7.8119 25.2816C9.3134 25.6459 10.8389 25.8998 12.3765 26.0411C14.0853 26.2088 15.8031 26.2623 17.5188 26.2014C21.0774 26.1253 24.5894 25.3648 27.868 23.9604C28.1815 23.821 28.4758 23.651 28.7811 23.4963C28.8376 23.4745 28.8955 23.4568 28.9544 23.4434C28.9544 23.6204 28.8293 23.6761 28.7344 23.7319C28.4768 23.8911 28.21 24.0344 27.9353 24.1611C26.131 24.9534 24.244 25.5364 22.3103 25.899C21.1498 26.1317 19.9756 26.2877 18.7951 26.3659C17.611 26.43 16.4254 26.4369 15.2427 26.4453C14.0792 26.4289 12.9174 26.3517 11.7618 26.214C9.75306 26.0148 7.77076 25.6009 5.84797 24.9792C5.22882 24.7785 4.63011 24.5181 4.06007 24.2015C3.90442 24.1439 3.77063 24.0381 3.67773 23.8991L3.72038 23.8308Z" fill="#35BDE1"></path>
  <path d="M3.72131 10.3849C3.7659 10.3929 3.80932 10.4064 3.85058 10.4253C5.10947 11.0575 6.44017 11.5307 7.81283 11.8343C9.3143 12.1991 10.8398 12.4534 12.3775 12.5953C14.0862 12.7625 15.8041 12.8155 17.5197 12.7542C21.0784 12.678 24.5903 11.9175 27.8689 10.5131C28.1825 10.3738 28.4768 10.2037 28.7821 10.0491C28.8387 10.0278 28.8966 10.0102 28.9554 9.99609C28.9554 10.1745 28.8302 10.2302 28.7353 10.286C28.4777 10.4447 28.2109 10.5876 27.9363 10.7138C26.132 11.5066 24.245 12.09 22.3113 12.4531C21.1507 12.6854 19.9765 12.8409 18.796 12.9186C17.6119 12.9827 16.4264 12.9897 15.2436 12.998C14.0824 12.9814 12.9229 12.9042 11.7696 12.7667C9.76102 12.5673 7.77879 12.1539 5.85578 11.5333C5.2366 11.3322 4.63789 11.0713 4.06789 10.7543C3.91261 10.6967 3.77893 10.5915 3.68555 10.4532L3.72131 10.3849Z" fill="#35BDE1"></path>
  <path d="M3.72038 17.4616C3.76481 17.4702 3.80816 17.4838 3.84965 17.5021C5.10854 18.1342 6.43924 18.6074 7.8119 18.9111C9.31337 19.2758 10.8389 19.5301 12.3765 19.672C14.0853 19.8392 15.8031 19.8922 17.5188 19.8309C21.0774 19.7552 24.5893 18.9952 27.868 17.5913C28.1815 17.4519 28.4758 17.2819 28.7811 17.1272C28.8374 17.1047 28.8953 17.087 28.9544 17.0742C28.9544 17.2512 28.8293 17.307 28.7344 17.3627C28.4768 17.5215 28.2099 17.6643 27.9353 17.7906C26.1313 18.5839 24.2442 19.1674 22.3103 19.5298C21.1498 19.7626 19.9756 19.9186 18.7951 19.9967C17.611 20.0594 16.4254 20.0678 15.2427 20.0748C14.0792 20.0588 12.9174 19.9821 11.7618 19.8448C9.75326 19.6443 7.77111 19.2304 5.84797 18.61C5.22878 18.4089 4.63008 18.148 4.06007 17.831C3.90479 17.7734 3.77112 17.6682 3.67773 17.5299L3.72038 17.4616Z" fill="#35BDE1"></path>
  <path fill-rule="evenodd" clip-rule="evenodd" d="M9.49723 7.26357C9.49697 7.39036 9.44758 7.51197 9.3597 7.60222C9.27063 7.69127 9.15063 7.74132 9.02551 7.74158H8.31445V2.94043H9.02551C9.15051 2.94128 9.27031 2.99124 9.3597 3.0798C9.44779 3.17048 9.49718 3.2926 9.49723 3.41984H23.2007C25.212 3.41984 27.1409 4.22947 28.563 5.67062C29.9852 7.11177 30.7842 9.06639 30.7842 11.1045H26.9925C26.9925 10.0854 26.593 9.10814 25.8819 8.38756C25.1708 7.66699 24.2064 7.26217 23.2007 7.26217L9.49723 7.26357Z" fill="#00052B"></path>
  <path fill-rule="evenodd" clip-rule="evenodd" d="M23.2017 29.9791C23.2021 29.8523 23.2514 29.7308 23.3392 29.6404C23.4281 29.5511 23.5482 29.501 23.6734 29.5011H24.3845V34.3036H23.6734C23.5482 34.3037 23.4281 34.2536 23.3392 34.1643C23.2514 34.0739 23.2021 33.9524 23.2017 33.8256H9.49955C7.77616 33.8252 6.10424 33.2304 4.75891 32.1389C3.41359 31.0474 2.47501 29.5243 2.09766 27.8203H6.08604C6.39666 28.469 6.88145 29.0157 7.48474 29.3979C8.08793 29.7804 8.78527 29.9828 9.49679 29.9819L23.2017 29.9791Z" fill="#00052B"></path>
  <path fill-rule="evenodd" clip-rule="evenodd" d="M7.8411 3.60742V7.64904C7.201 7.96381 6.66144 8.45504 6.28428 9.06638C5.90702 9.67768 5.70729 10.3843 5.708 11.1053V26.2028C5.77001 26.2027 5.83146 26.2149 5.88881 26.2388C5.94616 26.2627 5.99829 26.2979 6.04222 26.3422C6.13036 26.4323 6.17979 26.554 6.17975 26.6809V27.4014H1.44043V26.6795C1.44069 26.5527 1.49008 26.4311 1.57796 26.3408C1.62189 26.2965 1.67403 26.2613 1.73137 26.2374C1.78872 26.2135 1.85017 26.2013 1.91218 26.2014V11.1081C1.91242 9.36126 2.49976 7.66658 3.57745 6.3032C4.65515 4.93981 6.1589 3.98903 7.8411 3.60742Z" fill="#00A9DC"></path>
  <path d="M18.2576 0.806641H14.7217V1.77104H18.259L18.2576 0.806641Z" fill="#00052B"></path>
  <path d="M18.2576 0.598633H14.7217V0.807682H18.259L18.2576 0.598633Z" fill="#00A9DC"></path>
  <path d="M18.3351 0H14.6396V0.597886H18.3379L18.3351 0Z" fill="#00052B"></path>
  <path d="M38.9283 20.7012H31.3848V28.9823H38.9283V20.7012Z" fill="white"></path>
  <path d="M35.9076 27.343C35.1581 27.6022 34.1514 27.5451 33.4692 27.1159C33.2244 26.9598 32.9906 26.7228 32.9631 26.419C32.9522 26.2919 32.9826 26.1646 33.0498 26.0567C33.0713 26.023 33.0957 25.9913 33.1227 25.9619C33.1062 25.9977 33.092 26.0344 33.08 26.072C33.0452 26.1783 33.0418 26.2927 33.0704 26.4009C33.1501 26.6796 33.4197 26.8664 33.6714 26.9918C34.0858 27.1778 34.5287 27.29 34.9807 27.3235C35.2888 27.3521 35.5985 27.3591 35.9076 27.3444V27.343Z" fill="#00A9DC"></path>
  <path d="M37.0734 25.8262C37.1547 25.8661 37.2256 25.9246 37.2805 25.9972C37.3354 26.0698 37.3728 26.1544 37.3897 26.2443C37.4571 26.5857 37.211 26.8951 36.9111 27.0192C36.8488 27.0466 36.7831 27.0653 36.7158 27.0749C36.7378 27.0484 36.7598 27.0247 36.7832 26.9996C36.9344 26.8569 37.0592 26.6879 37.1518 26.5007C37.2072 26.3589 37.2106 26.2017 37.1614 26.0575C37.1373 25.9807 37.1079 25.9057 37.0734 25.8331V25.8262Z" fill="#00A9DC"></path>
  <path d="M33.5994 27.9794C33.0245 27.9111 32.3011 27.5961 32.0549 27.0289C32.05 27.0195 32.0458 27.0097 32.0425 26.9997C32.0425 26.9899 32.0288 26.9634 32.0261 26.9537C32.0233 26.9439 32.0123 26.9091 32.0082 26.8923C32.004 26.8756 31.9999 26.8547 31.9972 26.845C31.9944 26.8352 31.9903 26.8018 31.9876 26.7795C31.9848 26.7572 31.9876 26.7335 31.9876 26.7153C31.9862 26.6935 31.9862 26.6717 31.9876 26.6498V26.6164C32.0151 26.2053 32.3355 25.8861 32.6752 25.7091C32.7767 25.6551 32.8831 25.6113 32.9929 25.5781C32.931 25.6241 32.8719 25.6687 32.8127 25.7175C32.4538 25.9962 32.0714 26.4143 32.2626 26.9132C32.3933 27.2394 32.7164 27.4847 33.0066 27.6658C33.1978 27.7829 33.3986 27.8818 33.598 27.9808L33.5994 27.9794Z" fill="#00A9DC"></path>
  <path d="M37.1725 25.5137C37.6841 25.6781 38.2727 26.0461 38.3029 26.6426C38.325 27.3241 37.6346 27.7575 37.0789 27.9735C36.45 28.2004 35.7799 28.286 35.115 28.2244C34.9954 28.2146 34.8771 28.1993 34.7588 28.1784C34.9665 28.1686 35.1714 28.1561 35.3804 28.1338C36.0983 28.0529 36.8273 27.8996 37.4544 27.5261C37.6967 27.3927 37.8969 27.1927 38.032 26.9491C38.1847 26.6314 38.0815 26.3108 37.8629 26.0544C37.6651 25.8365 37.4326 25.6537 37.1752 25.5137H37.1725Z" fill="#00A9DC"></path>
  <path d="M38.5928 26.2039C38.7986 26.41 38.9183 26.6884 38.927 26.9815C38.919 27.1601 38.8756 27.3353 38.7993 27.4964C38.7229 27.6576 38.6153 27.8015 38.4828 27.9195C37.9423 28.4407 37.1927 28.7083 36.4721 28.8574C35.083 29.1361 33.1714 28.9828 32.0216 28.0909C31.733 27.8819 31.52 27.5828 31.4151 27.2394C31.3615 27.0217 31.3793 26.7922 31.466 26.5858C31.5398 26.4138 31.6485 26.2594 31.7851 26.1328C31.5998 26.342 31.4907 26.609 31.4756 26.8896C31.4687 27.5028 32.0189 27.9264 32.5126 28.1773C34.0254 28.9327 36.545 28.9243 38.0138 28.0658C38.2376 27.9373 38.4366 27.7688 38.6011 27.5683C38.9421 27.1321 38.916 26.6443 38.6011 26.2039H38.5928Z" fill="#00A9DC"></path>
  <path d="M36.3356 26.4102L36.326 26.42C35.9984 26.7041 35.5814 26.8602 35.1502 26.8602C34.7189 26.8602 34.3019 26.7041 33.9743 26.42L33.9646 26.4102C33.7172 26.19 33.5229 25.9151 33.3968 25.6068C33.2706 25.2985 33.216 24.965 33.2371 24.6319C33.2976 23.8194 33.8106 23.1128 34.2837 22.4383C34.6592 21.9045 32.8286 19.8823 32.9469 19.2607C33.0652 19.8823 35.6398 21.9087 36.0152 22.4383C36.4897 23.1128 37.0013 23.8194 37.0618 24.6319C37.0827 24.9648 37.0282 25.2982 36.9023 25.6064C36.7764 25.9147 36.5826 26.1896 36.3356 26.4102Z" fill="#00A9DC"></path>
  <path d="M34.9588 26.2438C34.9724 26.2156 34.9795 26.1846 34.9794 26.1532C34.9806 26.1215 34.9744 26.0901 34.9615 26.0612C34.9491 26.0317 34.9309 26.0052 34.9079 25.9832C34.8851 25.9616 34.8579 25.9454 34.8281 25.9358C34.5829 25.8574 34.3576 25.7256 34.168 25.5497C33.9737 25.3726 33.8459 25.1328 33.8063 24.871C33.8036 24.8466 33.7918 24.8242 33.7733 24.8083C33.7552 24.7918 33.7316 24.7828 33.7073 24.7832C33.6935 24.7832 33.68 24.786 33.6674 24.7916C33.6543 24.7973 33.6425 24.8059 33.633 24.8167C33.624 24.8269 33.6171 24.8387 33.6124 24.8515C33.6097 24.8653 33.6097 24.8795 33.6124 24.8933C33.64 25.2126 33.7542 25.5179 33.9424 25.7755C34.1302 26.0333 34.3843 26.2338 34.6769 26.3553C34.73 26.3761 34.7888 26.3761 34.8419 26.3553C34.8949 26.3345 34.9381 26.2942 34.9629 26.2424L34.9588 26.2438Z" fill="white"></path>
  <path d="M33.7137 24.5114C33.7422 24.5114 33.7695 24.4999 33.7896 24.4795C33.8097 24.4591 33.821 24.4315 33.821 24.4027C33.821 24.3738 33.8097 24.3462 33.7896 24.3258C33.7695 24.3054 33.7422 24.2939 33.7137 24.2939C33.6853 24.2939 33.658 24.3054 33.6379 24.3258C33.6178 24.3462 33.6064 24.3738 33.6064 24.4027C33.6064 24.4315 33.6178 24.4591 33.6379 24.4795C33.658 24.4999 33.6853 24.5114 33.7137 24.5114Z" fill="white"></path>
  <path d="M9.50977 3.40719C9.50977 2.11387 12.6331 1.06445 16.4881 1.06445C20.343 1.06445 23.4663 2.11666 23.4663 3.40719H9.50977Z" fill="#00A9DC"></path>
  <path fill-rule="evenodd" clip-rule="evenodd" d="M24.4395 17.0877V21.6311C24.4384 21.7816 24.3792 21.9257 24.2745 22.0325C24.2229 22.0858 24.1612 22.1281 24.0932 22.1568C24.0252 22.1856 23.9521 22.2001 23.8784 22.1997H23.0381V16.5303H23.8784C23.9521 16.5298 24.0252 16.5444 24.0932 16.5732C24.1612 16.6019 24.2229 16.6442 24.2745 16.6975C24.3768 16.8014 24.4359 16.9411 24.4395 17.0877Z" fill="#00052B"></path>
  <path fill-rule="evenodd" clip-rule="evenodd" d="M34.152 16.5303V22.2094H33.3103C33.1618 22.2091 33.0195 22.1496 32.9142 22.0436C32.8095 21.9368 32.7503 21.7927 32.7492 21.6422H32.6006V17.0989H24.9814V17.0905H32.4617C32.558 17.0905 32.6556 17.1003 32.7533 17.1003C32.7544 16.9498 32.8136 16.8057 32.9183 16.6989C33.0233 16.5923 33.1657 16.5322 33.3144 16.5317L34.152 16.5303Z" fill="#00052B"></path>
  <path fill-rule="evenodd" clip-rule="evenodd" d="M32.6091 17.0859V21.639H24.6736C24.5953 21.639 24.5182 21.6293 24.4385 21.6293V17.0859H32.6091Z" fill="#00052B"></path>
  <path fill-rule="evenodd" clip-rule="evenodd" d="M24.7314 21.6445H24.4385V21.6348C24.5375 21.6348 24.6351 21.6375 24.7314 21.6445Z" fill="#00052B"></path>
  <path fill-rule="evenodd" clip-rule="evenodd" d="M27.0696 26.3896H30.8613V26.5137C30.8613 28.26 30.2746 29.9542 29.1977 31.3175C28.1208 32.6808 26.618 33.6319 24.9365 34.0144V29.9727C25.5762 29.6566 26.1155 29.1651 26.4934 28.554C26.8702 27.9425 27.0698 27.236 27.0696 26.5151V26.3896Z" fill="#00A9DC"></path>
  <path fill-rule="evenodd" clip-rule="evenodd" d="M31.3313 22.1729V22.8934C31.331 23.0202 31.2816 23.1418 31.1937 23.232C31.1047 23.3211 30.9847 23.3711 30.8595 23.3714V25.0926H27.0664V23.3728C26.9413 23.3725 26.8213 23.3225 26.7323 23.2334C26.6445 23.1431 26.5951 23.0215 26.5947 22.8948V22.1742L31.3313 22.1729Z" fill="#00A9DC"></path>
  <path d="M30.8589 25.0537H27.0645V26.6745H30.8589V25.0537Z" fill="#00A9DC"></path>
</svg>
